# xmcd
#
# Track frame offsets:
#   150
#   6497
#   22640
#   37809
#   53951
#   75116
#   89036
#   102092
#   113892
#   135067
#   157909
#   171453
#   192637
#   208046
#   222482
#   231774
#   239941
#   254307
#   269716
#
# Disc length: 3773 seconds
#
# Revision: 0
# Processed by: cddbd v1.5.2PL0 Copyright (c) Steve Scherf et al.
# Submitted via: GXTranscoder 2.0.1939
#
DISCID=060ebb13
DTITLE=Samy Deluxe - Big baus of the nauf
DYEAR=1900
DGENRE=Hip Hop
TTITLE0=Baus Intro
TTITLE1=Intro
TTITLE2=Brand neu
TTITLE3=Boys sind back
TTITLE4=Baus of the nauf
TTITLE5=Geh nicht ans Telefon ran
TTITLE6=Ich bin einfach so
TTITLE7=Bonus track
TTITLE8=Sag es
TTITLE9=Die Antwort
TTITLE10=Fuck u song
TTITLE11=Film ab
TTITLE12=Blade
TTITLE13=Geh wo du wohnst
TTITLE14=Digga miees
TTITLE15=Guck mein van
TTITLE16=Das ist was ich mach
TTITLE17=Gott sei dank
TTITLE18=outro
EXTD=
EXTT0=
EXTT1=
EXTT2=
EXTT3=
EXTT4=
EXTT5=
EXTT6=
EXTT7=
EXTT8=
EXTT9=
EXTT10=
EXTT11=
EXTT12=
EXTT13=
EXTT14=
EXTT15=
EXTT16=
EXTT17=
EXTT18=
PLAYORDER=
